<?xml version="1.0" encoding="UTF-8" standalone="no"?>
<!DOCTYPE svg PUBLIC "-//W3C//DTD SVG 1.1//EN" "http://www.w3.org/Graphics/SVG/1.1/DTD/svg11.dtd">
<!-- Created with Vectornator (http://vectornator.io/) -->
<svg height="100%" stroke-miterlimit="10" style="fill-rule:nonzero;clip-rule:evenodd;stroke-linecap:round;stroke-linejoin:round;" version="1.1" viewBox="0 0 2048 2048" width="100%" xml:space="preserve" xmlns="http://www.w3.org/2000/svg" xmlns:vectornator="http://vectornator.io" xmlns:xlink="http://www.w3.org/1999/xlink">
<defs/>
<clipPath id="ArtboardFrame">
<rect height="2048" width="2048" x="0" y="0"/>
</clipPath>
<g clip-path="url(#ArtboardFrame)" id="Layer-2" vectornator:layerName="Layer 2">
<path d="M-55.6082-156.184L2083.64-156.184L2083.64 2209.11L-55.6082 2209.11L-55.6082-156.184Z" fill="#000000" fill-rule="nonzero" opacity="0" stroke="none"/>
<path d="M1.42109e-14 1024C1.42109e-14 458.46 458.46 2.84217e-14 1024 2.84217e-14C1589.54 2.84217e-14 2048 458.46 2048 1024C2048 1589.54 1589.54 2048 1024 2048C458.46 2048 1.42109e-14 1589.54 1.42109e-14 1024Z" fill="#ffffff" fill-rule="nonzero" opacity="1" stroke="none"/>
<path d="M1024 5.24025e-14C458.468-8.1522e-05 2.7911e-13 458.468 2.7911e-13 1024C-8.1522e-05 1589.53 458.468 2048 1024 2048C1116.87 2048 1206.83 2035.55 1292.37 2012.38C1072.33 2016.27 892.125 1936.98 826.625 1866.81C698.769 1729.83 873.672 1532.28 995.607 1454.19L1051.92 1453.78C1051.92 1453.78 799.273 1714.26 1077.75 1802.73C1129.05 1819.03 1463.17 1868.41 1732.92 1762.85C1927.09 1576.5 2048 1314.38 2048 1024C2048 458.468 1589.53 5.24025e-14 1024 5.24025e-14ZM1024 408.617C1285.64 408.617 1515.05 546.949 1644.2 754.75C1552.11 803.736 1321.52 845.389 1193.23 857.304C1199.2 839.79 1241.14 790.356 1262.98 770.622C1274.73 770.181 1306.98 769.358 1326.28 766.771C1367.43 748.497 1429.8 692.35 1468.46 596.788C1410.21 633.829 1172.43 668.378 1037.49 675.112C1026.94 630.747 1035.83 590.501 1035.49 561.226C951.125 581.775 896.57 548.694 858.462 530.297C854.622 565.282 966.177 662.383 996.828 675.519C905.967 667.557 675.172 648.064 580.572 597.884C610.767 677.909 676.862 748.553 718.907 765.175C743.108 769.412 769.44 767.341 786.837 771.404C814.998 799.388 845.178 834.31 856.678 856.928C761.142 849.43 509.893 810.93 405.048 752.81C534.427 546.099 763.188 408.617 1024 408.617ZM1155.04 773.001C1153.07 812.774 1147.44 837.036 1139.92 862.344C1065.91 867.878 963.899 868.718 907.36 862.281C899.008 833.757 894.511 809.271 893.273 773.283C952.923 774.939 1089.02 773.322 1155.04 773.001ZM390.711 776.789C411.396 814.683 431.982 847.327 496.019 893.304C729.838 962.042 1317.34 958.75 1560.06 890.768C1608.92 860.503 1652.57 798.789 1659.17 780.044C1720.04 887.326 1754.99 1011.41 1754.99 1143.77C1754.99 1297.76 1707.84 1440.63 1627.36 1558.74C1580.3 1522.25 1504.48 1477.7 1453.15 1456.88L1450.62 968.654C1155.43 1005.81 885.88 1000.51 597.821 968.81L594.691 1450.93C538.355 1467.39 455.149 1512.51 409.556 1541.81C335.909 1427.07 293.01 1290.5 293.01 1143.77C293.01 1010.06 328.68 884.812 390.711 776.789ZM732.211 1107.74L940.73 1107.74L940.73 1177.74L732.211 1177.74L732.211 1107.74ZM1107.21 1108.96L1316.23 1108.96L1316.23 1177.11L1107.21 1177.11L1107.21 1108.96ZM1105.27 1292.25L1314.47 1292.25L1314.47 1362.53L1105.27 1362.53L1105.27 1292.25ZM733.307 1293.37L941.388 1293.37L941.388 1362.43L733.307 1362.43L733.307 1293.37Z" fill="#d50032" fill-rule="nonzero" opacity="1" stroke="none"/>
<g fill="#ffffff" opacity="1" stroke="#ffffff" stroke-linecap="butt" stroke-linejoin="round" stroke-width="12.0502">
<path d="M423.368 502.647L337.641 412.689L362.679 395.685L445.023 487.861C453.639 497.506 457.404 506.524 456.318 514.914C455.231 523.305 449.766 531.897 439.922 540.691C435.249 544.866 429.843 548.221 423.703 550.755C417.564 553.289 412.076 554.75 407.238 555.139L398.4 541.043C402.904 539.88 407.055 538.273 410.853 536.22C414.652 534.168 417.993 531.854 420.876 529.278C425.848 524.836 428.683 520.605 429.382 516.584C430.081 512.563 428.343 508.216 424.168 503.542L423.368 502.647Z"/>
<path d="M573.422 438.262L546.707 417.702L490.061 456.041L496.403 490.388L477.721 499.894L435.742 335.104L465.674 324.023L467.465 334.162L597.194 418.791L573.422 438.262ZM472.362 360.31L486.432 436.762L526.907 402.364L472.362 360.31Z"/>
<path d="M617.386 413.471L556.049 291.369L547.782 296.815L536.657 282.602C539.693 280.286 543.83 277.414 549.068 273.986C554.306 270.558 560.057 266.888 566.32 262.976C572.583 259.064 578.797 255.36 584.961 251.864C591.125 248.367 596.68 245.453 601.624 243.122C610.789 238.8 620.113 236.688 629.594 236.787C639.075 236.886 647.76 239.203 655.648 243.739C663.535 248.275 669.584 255.004 673.792 263.929C678.967 274.903 680.923 285.147 679.66 294.661C678.398 304.175 674.73 312.575 668.658 319.861C662.585 327.147 654.785 333.036 645.258 337.529C641.278 339.406 636.528 341.056 631.008 342.48C625.488 343.903 619.297 344.685 612.435 344.826L638.623 400.361L617.386 413.471ZM604.331 327.64C607.439 327.354 610.806 326.835 614.432 326.084C618.058 325.332 621.493 324.412 624.739 323.324C627.985 322.235 630.513 321.265 632.321 320.412C641.125 316.26 647.268 310.452 650.75 302.987C654.232 295.522 653.641 286.845 648.978 276.956C646.362 271.409 642.789 267.271 638.26 264.542C633.73 261.814 628.843 260.359 623.598 260.179C618.354 259.999 613.38 261.017 608.676 263.235C604.455 265.226 599.766 267.474 594.609 269.979C589.452 272.485 584.788 274.942 580.617 277.351L604.331 327.64Z"/>
<path d="M821.541 335.681L802.346 307.97L736.723 327.263L732.318 361.913L711.629 365.286L721.759 195.535L753.644 194.083L752.266 204.286L850.109 324.363L821.541 335.681ZM748.979 230.685L739.129 307.794L788.149 287.336L748.979 230.685Z"/>
<path d="M965.167 313.586L881.047 213.28L895.522 318.919L873.363 324.066L851.494 183.64L843.382 174.3L874.195 160.315L956.73 269.659L942.153 152.557L970.228 153.378L982.557 308.983L965.167 313.586Z"/>
<path d="M1096.56 310.464L1112.39 177.555C1110.52 177.416 1108.71 177.353 1106.96 177.366C1105.21 177.379 1103.58 177.41 1102.09 177.462L1100.69 159.468C1104.63 159.237 1109.44 159.065 1115.11 158.953C1120.79 158.842 1126.92 158.863 1133.5 159.019C1140.08 159.174 1146.61 159.457 1153.08 159.866C1159.56 160.276 1165.5 160.877 1170.91 161.669C1185.95 163.872 1198.39 168.895 1208.22 176.736C1218.05 184.578 1225 194.893 1229.05 207.683C1233.11 220.472 1233.88 235.442 1231.37 252.593C1229.73 263.806 1226.48 273.775 1221.63 282.497C1216.78 291.22 1210.69 298.514 1203.37 304.381C1196.04 310.247 1187.82 314.4 1178.7 316.837C1169.58 319.275 1159.95 319.75 1149.79 318.262L1096.56 310.464ZM1123.74 294.636C1130.47 295.622 1137.22 296.443 1144 297.099C1150.77 297.754 1156.82 297.865 1162.14 297.432C1168.01 296.944 1173.84 294.801 1179.66 291.003C1185.47 287.205 1190.55 281.717 1194.9 274.539C1199.26 267.361 1202.19 258.627 1203.69 248.336C1205.67 234.88 1205.21 223.494 1202.33 214.178C1199.45 204.862 1194.83 197.548 1188.46 192.237C1182.1 186.925 1174.5 183.621 1165.66 182.327C1157.35 181.109 1149.01 180.089 1140.64 179.268L1123.74 294.636Z"/>
<path d="M1306.01 359.401C1292.39 354.742 1281.72 347.427 1273.99 337.458C1266.27 327.49 1261.72 315.754 1260.35 302.25C1258.98 288.747 1260.91 274.362 1266.13 259.097C1271.26 244.084 1278.48 231.723 1287.79 222.013C1297.1 212.303 1307.87 205.84 1320.1 202.626C1332.34 199.411 1345.26 200.133 1358.89 204.793C1372.52 209.453 1383.15 216.788 1390.79 226.798C1398.42 236.809 1402.91 248.523 1404.24 261.942C1405.57 275.361 1403.68 289.513 1398.59 304.4C1393.37 319.666 1386.12 332.227 1376.83 342.085C1367.54 351.942 1356.82 358.458 1344.67 361.631C1332.53 364.804 1319.64 364.061 1306.01 359.401ZM1318.06 339.635C1325.34 341.421 1332.39 341.086 1339.22 338.63C1346.05 336.174 1352.26 331.711 1357.86 325.24C1363.45 318.769 1367.96 310.55 1371.36 300.583C1371.84 299.196 1372.28 297.797 1372.69 296.388C1373.1 294.978 1373.48 293.558 1373.83 292.127C1376.7 280.85 1377.55 270.642 1376.38 261.504C1375.21 252.366 1372.36 244.733 1367.83 238.605C1363.3 232.477 1357.44 228.183 1350.25 225.724C1349.75 225.551 1349.21 225.368 1348.64 225.174C1348.08 224.98 1347.45 224.838 1346.78 224.748C1339.67 222.88 1332.67 223.163 1325.78 225.597C1318.88 228.031 1312.6 232.399 1306.92 238.701C1301.24 245.002 1296.7 253.136 1293.29 263.103C1292.86 264.365 1292.44 265.7 1292.03 267.109C1291.62 268.519 1291.24 269.939 1290.89 271.37C1287.97 282.774 1287.12 293.087 1288.34 302.31C1289.55 311.532 1292.46 319.292 1297.07 325.589C1301.69 331.887 1307.65 336.287 1314.97 338.789C1315.47 338.962 1315.99 339.103 1316.51 339.212C1317.04 339.322 1317.55 339.463 1318.06 339.635Z"/>
<path d="M1443.79 375.885L1497.55 263.849L1522.32 281.24L1465.29 390.898C1459.32 402.372 1452.23 409.087 1443.99 411.044C1435.76 413 1425.79 410.933 1414.08 404.843C1408.52 401.951 1403.47 398.084 1398.92 393.241C1394.38 388.398 1391.07 383.783 1388.99 379.396L1399.04 366.138C1401.73 369.938 1404.7 373.25 1407.96 376.075C1411.23 378.9 1414.58 381.205 1418.01 382.989C1423.92 386.065 1428.88 387.217 1432.89 386.446C1436.9 385.675 1440.35 382.509 1443.24 376.95L1443.79 375.885Z"/>
<path d="M1531.37 476.68C1519.74 468.191 1511.71 458.042 1507.29 446.232C1502.87 434.422 1502 421.866 1504.7 408.563C1507.39 395.26 1513.49 382.092 1523 369.06C1532.35 356.243 1542.91 346.577 1554.68 340.063C1566.45 333.548 1578.66 330.568 1591.29 331.123C1603.93 331.678 1616.06 336.199 1627.69 344.688C1639.32 353.177 1647.3 363.333 1651.63 375.157C1655.96 386.982 1656.77 399.499 1654.06 412.709C1651.36 425.919 1645.36 438.878 1636.09 451.587C1626.58 464.619 1615.93 474.466 1604.13 481.128C1592.34 487.789 1580.17 490.836 1567.63 490.266C1555.09 489.697 1543 485.168 1531.37 476.68ZM1548.73 461.371C1555.15 465.234 1561.99 467.005 1569.24 466.683C1576.49 466.362 1583.75 463.94 1591.01 459.418C1598.27 454.896 1605.01 448.38 1611.21 439.872C1612.08 438.687 1612.92 437.483 1613.73 436.259C1614.54 435.035 1615.32 433.791 1616.08 432.527C1622.16 422.607 1626 413.109 1627.59 404.034C1629.18 394.96 1628.72 386.825 1626.21 379.63C1623.7 372.436 1619.38 366.599 1613.24 362.119C1612.81 361.804 1612.35 361.47 1611.86 361.116C1611.38 360.763 1610.83 360.443 1610.21 360.158C1603.97 356.266 1597.2 354.461 1589.9 354.743C1582.6 355.026 1575.3 357.335 1568.01 361.67C1560.72 366.006 1553.97 372.428 1547.76 380.937C1546.97 382.014 1546.17 383.165 1545.36 384.389C1544.55 385.613 1543.77 386.856 1543.01 388.12C1536.85 398.148 1532.98 407.746 1531.41 416.914C1529.83 426.082 1530.32 434.356 1532.85 441.737C1535.39 449.118 1539.78 455.088 1546.03 459.646C1546.46 459.961 1546.91 460.248 1547.38 460.509C1547.85 460.769 1548.3 461.057 1548.73 461.371Z"/>
</g>
</g>
</svg>
