<?xml version="1.0" standalone="no"?>
<!DOCTYPE svg PUBLIC "-//W3C//DTD SVG 20010904//EN"
 "http://www.w3.org/TR/2001/REC-SVG-20010904/DTD/svg10.dtd">
<svg version="1.0" xmlns="http://www.w3.org/2000/svg"
 width="512.000000pt" height="512.000000pt" viewBox="0 0 512.000000 512.000000"
 preserveAspectRatio="xMidYMid meet">

<g transform="translate(0.000000,512.000000) scale(0.100000,-0.100000)"
fill="#000000" stroke="none">
<path d="M2440 5114 c-8 -3 -125 -70 -259 -148 -271 -157 -292 -175 -299 -260
-5 -58 10 -96 50 -133 12 -11 129 -83 258 -159 188 -110 244 -138 281 -142 60
-6 113 19 146 70 23 33 26 51 31 151 l5 112 101 -7 c523 -41 1036 -287 1406
-675 331 -347 537 -776 601 -1253 17 -123 17 -439 0 -560 -101 -748 -555
-1381 -1226 -1712 -708 -348 -1548 -292 -2206 148 -141 94 -239 176 -364 305
-377 389 -592 888 -621 1439 -7 121 -9 136 -30 157 -33 32 -87 31 -121 -3
l-26 -26 7 -130 c44 -881 550 -1655 1331 -2039 231 -114 470 -188 720 -225
167 -25 496 -25 660 0 516 78 978 309 1341 671 66 66 147 153 178 194 261 329
422 689 498 1108 21 114 23 157 22 403 0 255 -2 285 -27 410 -93 473 -283 855
-599 1202 -190 208 -477 420 -726 535 -264 123 -646 223 -847 223 -73 0 -75 2
-75 94 -1 130 -19 182 -82 229 -26 19 -100 31 -128 21z m34 -215 c8 -42 8
-449 -1 -449 -15 0 -412 236 -410 243 2 8 386 236 398 237 4 0 9 -14 13 -31z"/>
<path d="M1545 4554 c-62 -32 -75 -48 -75 -94 0 -46 33 -80 78 -80 36 0 120
39 142 65 24 29 18 85 -14 111 -35 30 -68 30 -131 -2z"/>
<path d="M1185 4344 c-27 -19 -56 -42 -62 -51 -19 -26 -16 -76 7 -101 45 -48
96 -38 178 33 51 45 58 90 17 130 -34 35 -78 32 -140 -11z"/>
<path d="M895 4090 c-11 -4 -44 -33 -72 -63 -66 -70 -72 -110 -21 -152 42 -36
79 -28 136 28 56 55 75 90 67 128 -10 44 -69 76 -110 59z"/>
<path d="M3185 3985 c-30 -29 -33 -83 -7 -114 11 -14 44 -29 90 -41 41 -10 76
-20 78 -23 2 -2 -473 -287 -1057 -633 -583 -346 -1068 -639 -1076 -652 -37
-54 2 -132 65 -132 15 0 76 29 142 68 275 164 1643 976 1825 1083 109 65 200
117 201 116 1 -1 -6 -38 -17 -82 -23 -96 -14 -130 37 -151 37 -15 68 -8 96 22
23 26 112 386 104 419 -3 13 -17 32 -31 41 -28 18 -354 103 -398 104 -17 0
-38 -10 -52 -25z"/>
<path d="M602 3743 c-26 -10 -94 -124 -95 -160 -2 -65 76 -105 130 -68 12 8
38 42 58 76 31 50 36 66 31 94 -4 19 -17 41 -29 50 -21 15 -69 19 -95 8z"/>
<path d="M382 3320 c-25 -11 -69 -97 -79 -153 -4 -26 0 -40 18 -60 55 -62 124
-37 160 59 31 81 25 125 -22 149 -32 17 -44 18 -77 5z"/>
<path d="M3335 3222 c-44 -28 -74 -64 -85 -103 -6 -21 -10 -379 -10 -936 l0
-903 -85 0 -85 0 0 748 0 747 -23 40 c-13 22 -40 49 -62 62 -36 20 -54 23
-169 23 -120 0 -132 -2 -172 -25 -28 -16 -49 -39 -63 -68 -21 -43 -21 -52 -21
-785 l0 -742 -85 0 -85 0 0 570 c0 620 1 608 -56 662 -44 41 -75 48 -203 48
-141 0 -191 -19 -228 -85 l-23 -40 0 -577 0 -578 -85 0 -85 0 0 308 c-1 321
-5 357 -47 404 -38 44 -90 58 -213 58 -140 0 -184 -16 -227 -81 l-28 -42 -3
-324 -3 -323 -54 0 c-42 0 -60 -5 -81 -24 -39 -33 -39 -89 0 -122 l27 -24
1479 0 1479 0 26 23 c38 32 38 92 0 124 -25 22 -35 23 -171 23 l-144 0 0 924
0 923 -22 33 c-47 69 -64 75 -221 78 -125 2 -145 1 -172 -16z m245 -1047 l0
-895 -85 0 -85 0 0 895 0 895 85 0 85 0 0 -895z m-680 -170 l0 -725 -85 0 -85
0 0 725 0 725 85 0 85 0 0 -725z m-680 -170 l0 -555 -85 0 -85 0 0 555 0 555
85 0 85 0 0 -555z m-682 -257 l2 -298 -85 0 -85 0 0 300 0 301 83 -3 82 -3 3
-297z"/>
<path d="M245 2878 c-28 -25 -44 -77 -45 -144 0 -50 31 -84 77 -84 67 0 89 30
98 131 6 68 -1 85 -42 107 -33 18 -59 15 -88 -10z"/>
</g>
</svg>
