<?xml version="1.0" standalone="no"?>
<!DOCTYPE svg PUBLIC "-//W3C//DTD SVG 20010904//EN"
 "http://www.w3.org/TR/2001/REC-SVG-20010904/DTD/svg10.dtd">
<svg version="1.0" xmlns="http://www.w3.org/2000/svg"
 width="512.000000pt" height="512.000000pt" viewBox="0 0 512.000000 512.000000"
 preserveAspectRatio="xMidYMid meet">

<g transform="translate(0.000000,512.000000) scale(0.100000,-0.100000)"
fill="#000000" stroke="none">
<path d="M546 4869 c-62 -15 -153 -68 -197 -116 -22 -24 -55 -74 -72 -111
l-32 -67 0 -2016 0 -2015 37 -76 c45 -91 103 -147 196 -191 l67 -32 2016 0
2015 0 76 37 c91 45 147 103 191 196 l32 67 0 2015 0 2015 -32 67 c-44 93
-100 151 -191 196 l-76 37 -1995 2 c-1182 0 -2012 -3 -2035 -8z m4008 -161
c55 -16 138 -99 154 -154 7 -24 12 -100 12 -178 l0 -136 -2160 0 -2160 0 0
136 c0 78 5 154 12 178 15 51 99 137 148 153 53 17 3937 17 3994 1z m166
-2364 c0 -1334 -3 -1746 -12 -1778 -16 -55 -99 -138 -154 -154 -60 -18 -3928
-18 -3988 0 -55 16 -138 99 -154 154 -9 32 -12 444 -12 1778 l0 1736 2160 0
2160 0 0 -1736z"/>
<path d="M585 4535 c-50 -49 -15 -135 55 -135 41 0 80 39 80 80 0 41 -39 80
-80 80 -19 0 -40 -9 -55 -25z"/>
<path d="M905 4535 c-50 -49 -15 -135 55 -135 41 0 80 39 80 80 0 41 -39 80
-80 80 -19 0 -40 -9 -55 -25z"/>
<path d="M1225 4535 c-50 -49 -15 -135 55 -135 41 0 80 39 80 80 0 41 -39 80
-80 80 -19 0 -40 -9 -55 -25z"/>
<path d="M2505 4535 c-16 -15 -25 -36 -25 -55 0 -19 9 -40 25 -55 l24 -25 991
0 991 0 24 25 c16 15 25 36 25 55 0 19 -9 40 -25 55 l-24 25 -991 0 -991 0
-24 -25z"/>
<path d="M726 3905 c-55 -19 -107 -65 -133 -116 l-22 -44 -1 -703 0 -703 25
-49 c28 -56 87 -104 146 -120 24 -7 440 -9 1206 -8 l1168 3 45 25 c58 33 105
96 119 160 15 70 15 1310 0 1380 -14 64 -61 127 -119 160 l-45 25 -1175 2
c-981 2 -1181 0 -1214 -12z m2371 -169 l28 -24 0 -672 0 -672 -28 -24 -28 -24
-1143 0 c-1142 0 -1143 0 -1170 21 l-26 20 0 679 0 679 26 20 c27 21 28 21
1170 21 l1143 0 28 -24z"/>
<path d="M1520 3587 c-53 -17 -133 -102 -149 -160 -16 -55 -11 -121 13 -167
l16 -33 -103 -138 -102 -137 -47 5 c-137 16 -268 -100 -268 -237 0 -63 23
-114 75 -165 102 -103 243 -101 338 5 69 76 85 176 43 260 l-16 33 103 137
102 138 51 -5 c29 -3 68 0 89 7 l37 12 160 -158 c127 -127 158 -163 153 -179
-30 -100 -11 -180 59 -250 103 -103 244 -101 339 5 69 76 85 176 43 260 l-16
33 103 137 102 138 51 -5 c78 -8 144 18 197 77 90 100 90 220 0 320 -95 105
-236 108 -339 5 -75 -75 -95 -176 -50 -265 l16 -33 -103 -137 -102 -138 -51 5
c-29 3 -68 0 -89 -7 l-37 -12 -160 158 c-127 127 -158 163 -153 179 29 94 11
175 -52 245 -65 72 -158 97 -253 67z m135 -172 c50 -49 15 -135 -55 -135 -41
0 -80 39 -80 80 0 41 39 80 80 80 19 0 40 -9 55 -25z m1120 0 c16 -15 25 -36
25 -55 0 -19 -9 -40 -25 -55 -15 -16 -36 -25 -55 -25 -19 0 -40 9 -55 25 -16
15 -25 36 -25 55 0 19 9 40 25 55 15 16 36 25 55 25 19 0 40 -9 55 -25z
m-1600 -640 c50 -49 15 -135 -55 -135 -41 0 -80 39 -80 80 0 41 39 80 80 80
19 0 40 -9 55 -25z m1120 0 c50 -49 15 -135 -55 -135 -41 0 -80 39 -80 80 0
41 39 80 80 80 19 0 40 -9 55 -25z"/>
<path d="M3465 3575 c-16 -15 -25 -36 -25 -55 0 -19 9 -40 25 -55 l24 -25 511
0 511 0 24 25 c16 15 25 36 25 55 0 19 -9 40 -25 55 l-24 25 -511 0 -511 0
-24 -25z"/>
<path d="M3465 3255 c-16 -15 -25 -36 -25 -55 0 -19 9 -40 25 -55 l24 -25 511
0 511 0 24 25 c16 15 25 36 25 55 0 19 -9 40 -25 55 l-24 25 -511 0 -511 0
-24 -25z"/>
<path d="M3464 2937 c-20 -17 -27 -33 -27 -57 0 -24 7 -40 27 -57 26 -22 33
-23 212 -23 183 0 185 0 209 25 16 15 25 36 25 55 0 19 -9 40 -25 55 -24 25
-26 25 -209 25 -179 0 -186 -1 -212 -23z"/>
<path d="M4105 2935 c-16 -15 -25 -36 -25 -55 0 -19 9 -40 25 -55 24 -25 26
-25 215 -25 189 0 191 0 215 25 16 15 25 36 25 55 0 19 -9 40 -25 55 -24 25
-26 25 -215 25 -189 0 -191 0 -215 -25z"/>
<path d="M3465 2615 c-16 -15 -25 -36 -25 -55 0 -19 9 -40 25 -55 l24 -25 511
0 511 0 24 25 c16 15 25 36 25 55 0 19 -9 40 -25 55 l-24 25 -511 0 -511 0
-24 -25z"/>
<path d="M1225 1975 l-25 -24 0 -616 0 -615 -80 0 -80 0 0 295 0 296 -25 24
c-24 25 -26 25 -215 25 -189 0 -191 0 -215 -25 l-25 -24 0 -351 0 -351 25 -24
24 -25 1151 0 1151 0 24 25 25 24 0 671 0 671 -25 24 c-24 25 -26 25 -215 25
-189 0 -191 0 -215 -25 l-25 -24 0 -616 0 -615 -80 0 -80 0 0 455 0 456 -25
24 c-24 25 -26 25 -215 25 -189 0 -191 0 -215 -25 l-25 -24 0 -456 0 -455 -80
0 -80 0 0 615 0 616 -25 24 c-24 25 -26 25 -215 25 -189 0 -191 0 -215 -25z
m295 -695 l0 -560 -80 0 -80 0 0 560 0 560 80 0 80 0 0 -560z m1280 0 l0 -560
-80 0 -80 0 0 560 0 560 80 0 80 0 0 -560z m-640 -160 l0 -400 -80 0 -80 0 0
400 0 400 80 0 80 0 0 -400z m-1280 -160 l0 -240 -80 0 -80 0 0 240 0 240 80
0 80 0 0 -240z"/>
<path d="M3715 1990 c-145 -27 -271 -94 -381 -204 -90 -90 -143 -175 -182
-294 -22 -67 -26 -94 -26 -212 0 -118 4 -145 26 -212 39 -119 92 -204 182
-294 90 -90 175 -143 294 -182 67 -22 94 -26 212 -25 119 0 144 3 215 26 115
38 199 91 290 182 91 91 144 175 182 290 23 71 26 96 26 215 1 118 -3 145 -25
212 -39 119 -92 204 -182 294 -138 137 -286 202 -476 209 -58 2 -127 0 -155
-5z m45 -240 c0 -61 -3 -80 -14 -80 -32 0 -156 -73 -195 -116 -39 -42 -101
-153 -101 -181 0 -9 -23 -13 -81 -13 l-82 0 7 43 c13 78 80 200 149 269 82 81
222 156 295 158 21 0 22 -4 22 -80z m263 57 c175 -64 292 -185 353 -367 14
-40 19 -84 19 -160 0 -76 -5 -120 -19 -160 -20 -61 -75 -170 -85 -170 -4 0
-31 25 -60 54 l-54 55 29 63 c25 55 29 75 29 158 0 86 -3 101 -32 162 -42 90
-100 150 -186 193 -38 19 -76 35 -83 35 -11 0 -14 19 -14 80 0 94 0 94 103 57z
m-109 -299 c86 -26 166 -136 166 -228 0 -124 -116 -240 -240 -240 -124 0 -240
116 -240 240 0 63 23 114 75 165 70 71 145 90 239 63z m-464 -322 c0 -7 16
-45 35 -83 43 -86 103 -144 193 -186 61 -29 76 -32 162 -32 83 0 103 4 158 29
l63 29 55 -54 c29 -29 54 -56 54 -60 0 -10 -109 -65 -170 -85 -40 -14 -84 -19
-160 -19 -158 0 -282 50 -390 156 -66 65 -103 124 -137 216 -37 103 -37 103
57 103 61 0 80 -3 80 -14z"/>
</g>
</svg>
